# xmcd
#
# Track frame offsets: 
#        150
#        16243
#        31065
#        54443
#        75239
#        91916
#        112313
#        125649
#        145564
#        162857
#        177905
#        192239
#
# Disc length: 2904 seconds
#
# Revision: 0
# Processed by: cddbd v1.5.2PL0 Copyright (c) Steve Scherf et al.
# Submitted via: ExactAudioCopyFreeDBPlugin 1.0
#
DISCID=8f0b560c
DTITLE=Blind Boys of Alabama - Almost Home
DYEAR=2017
DGENRE=Gospel
TTITLE0=Stay On The Gospel Side
TTITLE1=Let My Mother Live
TTITLE2=God Knows Everything
TTITLE3=Pray For Peace
TTITLE4=Singing Brings Us Closer Together
TTITLE5=Almost  Home
TTITLE6=Live Forever
TTITLE7=I Shall Be Released
TTITLE8=Train Fare
TTITLE9=I Can See
TTITLE10=I Kept On Walking
TTITLE11=I Was Called
EXTD=
EXTT0=
EXTT1=
EXTT2=
EXTT3=
EXTT4=
EXTT5=
EXTT6=
EXTT7=
EXTT8=
EXTT9=
EXTT10=
EXTT11=
PLAYORDER=
